/* XPM */
static char * psnd_icon32_xpm[] = {
"32 32 16 1",
" 	c #000000",
".	c #066622",
"+	c #76EF13",
"@	c #842813",
"#	c #9B8E4D",
"$	c #B29F42",
"%	c #C9B036",
"&	c #D8BA24",
"*	c #E2C118",
"=	c #EDC915",
"-	c #FF3502",
";	c #2C2C8E",
">	c #22228E",
",	c #2A2A99",
"'	c #2424AD",
")	c #2323C4",
"                                ",
"                                ",
"                                ",
"             .......            ",
"            .+++++..            ",
"           .+++++.+.            ",
"          .......++.            ",
"          .+++++.++.            ",
"         @.+++++.++.@@@@        ",
"        @#.+++++.+.###@@        ",
"       @$$.+++++..$$$@#@        ",
"      @%%%.......%%%@$#@        ",
"     @&&&&&&&&&&&&&@%$#@        ",
"    @*************@&%$#@        ",
"   @=============@*&%$#@        ",
"  @@@@@@@@@@@@@@@=*&%$#@        ",
"  @-------------@=*&%$#@        ",
"  @-------------@=*&%$#@        ",
"  @-------------@=*&%$#@        ",
"  @-------------@=*&%$#@        ",
"  @-------------@=*&;;;;;;;;;   ",
"  @-------------@=*>>>>>>>>>    ",
"  @-------------@=,,,,,,,,,     ",
"  @-------------@'''''''''      ",
"  @-------)))))))))))))))       ",
"  @------)))))))))))))))        ",
"  @-----)))))))))))))))         ",
"  @-------------@=*@            ",
"  @-------------@=@             ",
"  @-------------@@              ",
"  @@@@@@@@@@@@@@@               ",
"                                "};
