/* XPM */
static char * try10_xpm[] = {
"16 16 7 1",
" 	c None",
".	c black",
"X	c white",
"o	c #787c78",
"O	c #383838",
"+	c #b8b8b8",
"@	c #582020",
"                ",
"            o   ",
"       o   Ooo  ",
"       O+ OOO   ",
"       O+OOO    ",
"       OOOO     ",
"       OOO++    ",
"       OOOOOo   ",
"     O          ",
"     O          ",
"     O          ",
"     O          ",
"     O          ",
"    O @         ",
"OOOOO OOOOOOOOO ",
"                "};
/* XPM */
static char * try11_xpm[] = {
"16 16 3 1",
" 	c None",
".	c black",
"X	c white",
"                ",
"   .        .   ",
"  .          .  ",
" .............. ",
"  .          .  ",
"   .        .   ",
"        ..      ",
"        ..      ",
"     .....      ",
"   ..   ..      ",
"   ..   ..      ",
"   ..   ..      ",
"   ..   ..      ",
"     .....      ",
"                ",
"                "};
/* XPM */
static char * try12_xpm[] = {
"16 16 4 1",
" 	c None",
"#	c black",
"X	c blue",
"o	c #ddddff",
"    ####        ",
"  ########  #   ",
"  ##     ####   ",
" ##      ####   ",
" #       ####   ",
" #      #####   ",
"  #             ",
"   #            ",
"    #    X      ",
"  X  ##  X X    ",
"  X      X X    ",
"  X      X X X  ",
"  X    X X X X  ",
"  X    X XXX X  ",
"  X    XXXXX XX ",
"XXXXXXXXXXXXXXXX"};



/* XPM */
static char * try113_xpm[] = {
"16 16 6 1",
" 	c black",
".	c white",
"X	c #ffcccc",
"o	c #ff2222",
"O	c #ffaaaa",
"+	c #ff0000",
"                ",
"     ..         ",
"     ..    XXX  ",
"     ..    XoX  ",
"     ..    XXX  ",
"     ..         ",
"     ..         ",
" ..........     ",
" ..........     ",
"                ",
"                ",
"    +++         ",
"   ++o++    oo  ",
"  ++oOo++   oo  ",
"   +++++        ",
"                "};
/* XPM */
static char * try14_xpm[] = {
"16 16 7 1",
" 	c None",
".	c black",
"X	c #8080ff",
"o	c #aaaaff",
"O	c #bbbbff",
"+	c #0000ff",
"@	c #ccccff",
"                ",
".........       ",
" ........       ",
" ..      .      ",
"  ..            ",
"   ..           ",
"    ..          ",
"   .            ",
"  .      .    O ",
" ........  +  O ",
".........  +  O ",
"    O      +  O ",
" OOOOOOOOOO+OOOO",
"       +   +    ",
"++++++++++++++++",
"                "};
/* XPM */
static char * try15_xpm[] = {
/* width height num_colors chars_per_pixel */
"16 16 7 1",
/* colors */
" 	c None",
".	c #804c48",
"X	c #880000",
"o	c white",
"O	c #501418",
"+	c #502420",
"@	c #181818",
/* pixels */
"                ",
"                ",
"    .....       ",
"   .     X      ",
"  .       X     ",
"  X oo    X     ",
"  X oo    X     ",
"  X       X     ",
"  O       X     ",
"   O     X+     ",
"    OOOOX@++    ",
"          @++   ",
"           @++  ",
"            @   ",
"                ",
"                "};
/* XPM */
static char * try16_xpm[] = {
/* width height num_colors chars_per_pixel */
"16 16 9 1",
/* colors */
" 	c None",
".	c #804c48",
"X	c black",
"o	c #888888",
"O	c #880000",
"+	c white",
"@	c #501418",
"#	c #502420",
"$	c #181818",
/* pixels */
"                ",
"                ",
"  .....   Xo   X",
" .     O   Xo Xo",
".       O   XXo ",
"O ++    O   XXo ",
"O ++    O  Xo Xo",
"O       O Xo   X",
"@       O       ",
" @     O#       ",
"  @@@@O$##      ",
"        $##     ",
"         $##    ",
"          $     ",
"                ",
"                "};
/* XPM */
static char * try17_xpm[] = {
/* width height num_colors chars_per_pixel */
"16 16 9 1",
/* colors */
" 	c None",
".	c #804c48",
"X	c black",
"o	c #880000",
"O	c #888888",
"+	c white",
"@	c #501418",
"#	c #502420",
"$	c #181818",
/* pixels */
"                ",
"                ",
"  .....  OX    X",
" .     o  OX  XO",
".       o  OXXO ",
"o ++    o   XO  ",
"o ++    o  XO   ",
"o       o XO    ",
"@       o       ",
" @     o#       ",
"  @@@@o$##      ",
"        $##     ",
"         $##    ",
"          $     ",
"                ",
"                "};
/* XPM */
static char * try__18_xpm[] = {
"16 16 4 1",
" 	c #ff0000",
".	c #f0e468",
"X	c black",
"o	c #b8b498",
"                ",
" ....X......... ",
" ....XX........ ",
" ....XXX....... ",
" ....XXXX...... ",
" ....XXXXX..... ",
" ....XXXXXX.... ",
" ....XXXXXXX... ",
" ....XXXXX..... ",
" ....XXXXX..... ",
" ....X.oXXX.... ",
" .......XXX.... ",
" .......oXXX... ",
" ........XXX... ",
" ........X..... ",
"                "};

/* XPM */
static char * try18_xpm[] = {
"16 16 2 1",
"# c #000000",
". c None",
"................",
".....#..........",
".....##.........",
".....###........",
".....####.......",
".....#####......",
".....######.....",
".....#######....",
".....########...",
".....#####......",
".....##.##......",
".....#...##.....",
".........##.....",
"..........##....",
"..........##....",
"................"};


/* XPM */
static char * try19_xpm[] = {
"16 16 6 1",
" 	c None",
"+	c blue",
"X	c black",
"o	c white",
".	c darkred",
"a	c darkgreen",
"   +      . .   ",
"  ++     .   .  ",
"   +     .   .  ",
"   +        .   ",
"   +  X    .    ",
"      XX .....  ",
"      XoX       ",
" aa   XooX      ",
"a  a  XoooX     ",
"   a  XooooX    ",
" aa   XoooooX   ",
"   a  XoooXXXX  ",
"a  a  XoXooX    ",
" aa   XX XooX   ",
"      X  XooX   ",
"          XooX  "};
/* XPM */
static char * try1_xpm[] = {
"16 16 15 1",
" 	c None",
".	c #907418",
"X	c #444444",
"o	c #b8b068",
"O	c black",
"+	c #d8c450",
"@	c #e8e068",
"#	c #f8f8f8",
"$	c #a88c28",
"%	c #706018",
"&	c #c0a850",
"*	c #111111",
"=	c #c0b050",
"-	c #888458",
";	c #b0a050",
"                ",
"            ... ",
"         XXXXooo",
"   OXXXXXXX+@+Xo",
"  O++###@@@@X@@X",
"  O$$$$$$$$$$X@X",
"   OOOOOO$$$$$@+",
"         O$$$$$+",
"     %%& O$$$$$$",
"    *===--OX$$$$",
"    *;;====O-$$$",
"    ;*-;;==$$$$$",
"      *--$$$$$$$",
"       *---$$$$$",
"        XXX--X$$",
"           XX---"};
/* XPM */
static char * try20_xpm[] = {
"16 16 3 1",
" 	c None",
".	c None",
"X	c black",
"                ",
"                ",
"     X    X     ",
"    XXX   X     ",
"   XXXXX  X     ",
"     X    X     ",
"     X    X     ",
"     X    X     ",
"     X    X     ",
"     X    X     ",
"     X  XXXXX   ",
"     X   XXX    ",
"     X    X     ",
"                ",
"                ",
"                "};
/* XPM */
static char * try21_xpm[] = {
"16 16 4 1",
" 	c #ddddff",
".	c #383838",
"X	c black",
"o	c #aaaaff",
"                ",
"                ",
"       ..       ",
"      .XX.      ",
"     ..XXX.     ",
"    .XXXXXX.    ",
"   .XX XX XX.   ",
"       XX       ",
"       XX       ",
"       XX       ",
"       XX       ",
"       XX       ",
"XXXXXXXXXXXXXXXX",
"XXXXXXXXXXXXXXXX",
"oooooooooooooooo",
"oooooooooooooooo"};
/* XPM */
static char * try2_xpm[] = {
"16 16 4 1",
" 	c white",
".	c black",
"X	c #888888",
"o	c #cccccc",
"                ",
"                ",
"  ...Xo         ",
"  .......o      ",
"  ..........    ",
"  X........     ",
"  o......       ",
"   .......      ",
"   ........     ",
"   o.. .....    ",
"    ..  .....   ",
"    .    .....  ",
"          ..... ",
"           ...  ",
"            .   ",
"                "};
/* XPM */
static char * try3_xpm[] = {
"16 16 3 1",
" 	c #ddffdd",
".	c black",
"X	c #aaaaff",
"                ",
"                ",
" ....           ",
" ....           ",
" .   .       .  ",
" .   .       .  ",
" .   .       .  ",
" ....        .  ",
" .           .  ",
" .    ...    .  ",
" .   .   .  ..  ",
" .    ...  .X.  ",
"           .X.  ",
"         ..XX.  ",
".........XXXX.  ",
"XXXXXXXXXXXXX..X"};
/* XPM */
static char * try4_xpm[] = {
"16 16 2 1",
" 	c None",
".	c Black",
"                ",
"                ",
"  .....         ",
"  ..   ..       ",
"  ..   ..       ",
"  ..   ..       ",
"  ..   ..       ",
"  ..   ..       ",
"  .....         ",
"  ..     ..     ",
"  ..    ....    ",
"  ..   ..  ..   ",
"  ..   ..  ..   ",
"  ..    ....    ",
"         ..     ",
"                "};
/* XPM */
static char * try5_xpm[] = {
"16 16 2 1",
" 	c None",
".	c Black",
"                ",
"                ",
"  .....         ",
"  ..   ..       ",
"  ..   ..       ",
"  ..   ..       ",
"  ..   ..       ",
"  ..   ..       ",
"  .....         ",
"  ..      ..    ",
"  ..    ....    ",
"  ..    ....    ",
"  ..      ..    ",
"  ..      ..    ",
"          ..    ",
"                "};
/* XPM */
static char * try6_xpm[] = {
"16 16 2 1",
" 	c None",
".	c Black",
"                ",
"                ",
" ......         ",
" ......         ",
"   ..           ",
"   ..           ",
"   ..           ",
"   ..           ",
"   ..           ",
"   ..      ..   ",
"   ..     ....  ",
"   ..    ..  .. ",
" ......  ..  .. ",
" ......   ....  ",
"           ..   ",
"                "};
/* XPM */
static char * try7_xpm[] = {
"16 16 4 1",
" 	c None",
"o	c black",
"X	c white",
".	c blue",
"                ",
"                ",
"         oo     ",
"        o  o    ",
"       o        ",
"       o        ",
"       o        ",
"       o        ",
"       o        ",
"       o        ",
"       o        ",
"       o        ",
"   o  o         ",
"    oo          ",
"                ",
"                "};
/* XPM */
static char * try8_xpm[] = {
"16 16 4 1",
" 	c None",
"o	c black",
"X	c white",
".	c #383838",
"                ",
"                ",
"     o          ",
"    ooo         ",
"   ooooo        ",
"     o          ",
"     o          ",
"     o          ",
"     o      o   ",
"     o      oo  ",
" oooooooooooooo ",
"     o      oo  ",
"     o      o   ",
"     o          ",
"     o          ",
"                "};
/* XPM */
static char * try13_xpm[] = {
"16 16 5 1",
" 	c Red",
"o	c black",
"X	c white",
".	c blue",
"a	c #ffffff",
"aaaaaaaa        ",
"aaaaaaaa        ",
"aaaoaaaa        ",
"aaoooaaa        ",
"aoooooaa        ",
"aaaoaaaa        ",
"aaaoaaaa........",
"aaaoaaa.........",
"aaaoaa..........",
"aaaoa...........",
"aaao......X.....",
"aaa.......XX....",
"aa..XXXXXXXXXX..",
"a.........XX....",
"..........X.....",
"................"};

/* XPM */
static char * try9_xpm[] = {
"16 16 4 1",
" 	c None",
".	c black",
"X	c white",
"o	c black",
"                ",
"   oooo         ",
"   o   o        ",
"   o   o        ",
"   oooo         ",
"   o            ",
"   o  oooo      ",
"   o  o   o     ",
"      o   o     ",
"      oooo      ",
"      o         ",
"      o  o    o ",
"      o  oo  oo ",
"         o oo o ",
"         o    o ",
"         o    o "};
/* XPM */
/* Drawn  by Mark Donohoe for the K Desktop Environment */
/* See http://www.kde.org */
static char*up[]={
"22 22 5 1",
"# c #000000",
"a c #ffffff",
"b c #808080",
"c c #c0c0c0",
". c None",
"......................",
"......................",
"......................",
"......................",
"......................",
"..........#...........",
".........#a#..........",
"........#aaa#b........",
".......#aacca#b.......",
"......#accccca#b......",
".....####ccc####b.....",
"........#ccc#bbbb.....",
"........#ccc#b........",
"........#ccc#b........",
"........#ccc#b........",
"........#ccc#b........",
"........#ccc#b........",
"........#####b........",
".........bbbbb........",
"......................",
"......................",
"......................"};

/* XPM */
/* Drawn  by Mark Donohoe for the K Desktop Environment */
/* See http://www.kde.org */
static char*context_help[]={
"22 22 4 1",
"# c #000000",
"a c #000080",
"b c #808080",
". c None",
"......................",
"......................",
"......................",
"......................",
"...#........aaaaab....",
"...##......aa..baab...",
"...###....aab...aaa...",
"...####...aab...aaa...",
"...#####..baa..baab...",
"...######......aab....",
"...#######....aa......",
"...########..aab......",
"...#####.....aab......",
"...##.##..............",
"...#...##....aaa......",
".......##....aaa......",
"........##............",
"........##............",
"......................",
"......................",
"......................",
"......................"};

